<svg xmlns="http://www.w3.org/2000/svg" version="1.1" xmlns:xlink="http://www.w3.org/1999/xlink" viewBox="0 0 11.241876740194426 10.638823005260745"><g transform="matrix(1,0,0,1,0.91128022800737,7.761567777253375)"><rect width="11.241876740194426" height="11.241876740194426" x="-0.91128022800737" y="-8.063094644720216" fill="#102036"></rect><g clip-path="url(#SvgjsClipPath1002)"><g clip-path="url(#SvgjsClipPath1000c0eaebe5-a2f0-41ce-82f8-d2954e67bf58)"><path d=" M 3.0725177674781396 -2.581231168660267 L 3.0725177674781396 -4.891652382009514 L 1.5590146077756302 -4.891652382009514 L 1.5590146077756302 -1.7889315124063137 L 2.6715322056104824 -2.855944312400493 L 3.0725177674781396 -2.581231168660267 Z" fill="#3682ae" transform="matrix(1,0,0,1,0,0)" fill-rule="nonzero"></path></g><g clip-path="url(#SvgjsClipPath1000c0eaebe5-a2f0-41ce-82f8-d2954e67bf58)"><path d=" M 5.043921445153506 -5.70641918322719 L 3.530445452494483 -5.70641918322719 L 3.530445452494483 -2.267451816385779 L 5.043921445153506 -1.2307031028360829 L 5.043921445153506 -5.70641918322719 Z" fill="#3682ae" transform="matrix(1,0,0,1,0,0)" fill-rule="nonzero"></path></g><g clip-path="url(#SvgjsClipPath1000c0eaebe5-a2f0-41ce-82f8-d2954e67bf58)"><path d=" M 7.015352289872359 -3.127261575704849 L 7.015352289872359 -3.1526899284086514 L 7.015352289872359 -6.850287549246005 L 5.501876297213336 -6.850287549246005 L 5.501876297213336 -0.9283882429130941 L 7.015352289872359 -2.4352626440047844 L 7.015352289872359 -3.127261575704849 Z" fill="#3682ae" transform="matrix(1,0,0,1,0,0)" fill-rule="nonzero"></path></g><g clip-path="url(#SvgjsClipPath1000c0eaebe5-a2f0-41ce-82f8-d2954e67bf58)"><path d=" M 7.295634677527414 -3.080344091602854 L 7.5979495374504005 -2.7877006991612285 L 7.015352289872359 -2.2078201559318824 L 5.514047132695497 -0.7131165903223557 L 5.501876297213336 -0.7215383738033161 L 5.043921445153506 -1.0351275567733946 L 3.530445452494483 -2.072066439627501 L 3.0725177674781396 -2.385845791901989 L 2.688538774833325 -2.6489042739863047 L 1.5590146077756302 -1.5655912478999436 L 0.8508784522443058 -0.8864966618561905 L 1.5590146077756302 -1.3879459505386569 L 2.7078817097960464 -2.2015445688863924 L 3.0725177674781396 -1.9517164369802291 L 3.530445452494483 -1.637937084705742 L 5.043921445153506 -0.601188371156046 L 5.501876297213336 -0.2874361859250447 L 5.556482054622142 -0.2500000000000018 L 7.015352289872359 -1.7022414766393972 L 7.8553029404024555 -2.5384159081248034 L 8.162616536327047 -2.240936781942497 L 8.568437831935382 -3.527540794441845 L 7.295634677527414 -3.080344091602854 Z" fill="#a5b2ba" transform="matrix(1,0,0,1,0,0)" fill-rule="nonzero"></path></g></g><g><path d=" M 1.1291731567382803 0.5437499999999998 Q 1.0849231567382804 0.6224999999999998 0.9956731567382805 0.6697499999999998 Q 0.9064231567382804 0.7169999999999999 0.7774231567382804 0.7169999999999999 L 0.6319231567382805 0.7169999999999999 L 0.6319231567382805 1.0739999999999998 L 0.3379231567382805 1.0739999999999998 L 0.3379231567382805 0.016499999999999737 L 0.7774231567382804 0.016499999999999737 Q 0.9049231567382805 0.016499999999999737 0.9941731567382804 0.06149999999999989 Q 1.0834231567382804 0.10649999999999982 1.1284231567382805 0.18599999999999983 Q 1.1734231567382805 0.26549999999999985 1.1734231567382805 0.3689999999999999 Q 1.1734231567382805 0.46499999999999986 1.1291731567382803 0.5437499999999998 M 0.8734231567382805 0.3689999999999999 Q 0.8734231567382805 0.25349999999999984 0.7489231567382805 0.25349999999999984 L 0.6319231567382805 0.25349999999999984 L 0.6319231567382805 0.4829999999999999 L 0.7489231567382805 0.4829999999999999 Q 0.8734231567382805 0.4829999999999999 0.8734231567382805 0.3689999999999999 M 1.6339026489257806 0.8489999999999999 L 1.9624026489257806 0.8489999999999999 L 1.9624026489257806 1.0739999999999998 L 1.3399026489257806 1.0739999999999998 L 1.3399026489257806 0.016499999999999737 L 1.6339026489257806 0.016499999999999737 L 1.6339026489257806 0.8489999999999999 M 2.4184443969726557 0.2519999999999998 L 2.4184443969726557 0.4244999999999999 L 2.7559443969726556 0.4244999999999999 L 2.7559443969726556 0.6479999999999999 L 2.4184443969726557 0.6479999999999999 L 2.4184443969726557 0.8384999999999998 L 2.8009443969726555 0.8384999999999998 L 2.8009443969726555 1.0739999999999998 L 2.1244443969726556 1.0739999999999998 L 2.1244443969726556 0.016499999999999737 L 2.8009443969726555 0.016499999999999737 L 2.8009443969726555 0.2519999999999998 L 2.4184443969726557 0.2519999999999998 M 4.228904846191406 0.016499999999999737 L 4.228904846191406 1.0739999999999998 L 3.9349048461914053 1.0739999999999998 L 3.9349048461914053 0.4904999999999998 L 3.735404846191406 1.0739999999999998 L 3.4894048461914053 1.0739999999999998 L 3.2884048461914057 0.4859999999999999 L 3.2884048461914057 1.0739999999999998 L 2.9944048461914057 1.0739999999999998 L 2.9944048461914057 0.016499999999999737 L 3.3499048461914054 0.016499999999999737 L 3.6154048461914057 0.7034999999999998 L 3.8749048461914057 0.016499999999999737 L 4.228904846191406 0.016499999999999737 M 5.679401184082031 0.016499999999999737 L 5.679401184082031 1.0739999999999998 L 5.38540118408203 1.0739999999999998 L 5.38540118408203 0.4904999999999998 L 5.185901184082031 1.0739999999999998 L 4.93990118408203 1.0739999999999998 L 4.738901184082031 0.4859999999999999 L 4.738901184082031 1.0739999999999998 L 4.44490118408203 1.0739999999999998 L 4.44490118408203 0.016499999999999737 L 4.80040118408203 0.016499999999999737 L 5.065901184082031 0.7034999999999998 L 5.325401184082031 0.016499999999999737 L 5.679401184082031 0.016499999999999737 M 6.129397521972655 1.0147499999999998 Q 6.004897521972656 0.9449999999999998 5.932147521972656 0.8212499999999998 Q 5.859397521972656 0.6974999999999998 5.859397521972656 0.5414999999999999 Q 5.859397521972656 0.38549999999999984 5.932147521972656 0.2617499999999998 Q 6.004897521972656 0.1379999999999998 6.129397521972655 0.06899999999999973 Q 6.253897521972656 -2.220446049250313e-16 6.402397521972656 -2.220446049250313e-16 Q 6.552397521972655 -2.220446049250313e-16 6.676147521972656 0.06899999999999973 Q 6.799897521972656 0.1379999999999998 6.871897521972656 0.2617499999999998 Q 6.943897521972656 0.38549999999999984 6.943897521972656 0.5414999999999999 Q 6.943897521972656 0.6974999999999998 6.871897521972656 0.8212499999999998 Q 6.799897521972656 0.9449999999999998 6.675397521972656 1.0147499999999998 Q 6.550897521972656 1.0844999999999998 6.402397521972656 1.0844999999999998 Q 6.253897521972656 1.0844999999999998 6.129397521972655 1.0147499999999998 M 6.5801475219726555 0.7379999999999998 Q 6.645397521972655 0.6644999999999999 6.645397521972655 0.5414999999999999 Q 6.645397521972655 0.41549999999999987 6.5801475219726555 0.3427499999999998 Q 6.514897521972656 0.2699999999999998 6.402397521972656 0.2699999999999998 Q 6.288397521972656 0.2699999999999998 6.223897521972655 0.3427499999999998 Q 6.1593975219726556 0.41549999999999987 6.1593975219726556 0.5414999999999999 Q 6.1593975219726556 0.6659999999999998 6.223897521972655 0.7387499999999998 Q 6.288397521972656 0.8114999999999999 6.402397521972656 0.8114999999999999 Q 6.514897521972656 0.8114999999999999 6.5801475219726555 0.7379999999999998 M 8.103378479003906 1.0739999999999998 L 7.809378479003906 1.0739999999999998 L 7.417878479003906 0.4829999999999999 L 7.417878479003906 1.0739999999999998 L 7.123878479003905 1.0739999999999998 L 7.123878479003905 0.016499999999999737 L 7.417878479003906 0.016499999999999737 L 7.809378479003906 0.6149999999999998 L 7.809378479003906 0.016499999999999737 L 8.103378479003906 0.016499999999999737 L 8.103378479003906 1.0739999999999998 M 8.415400451660155 0.9967499999999998 Q 8.296900451660155 0.9089999999999998 8.287900451660155 0.7454999999999998 L 8.601400451660155 0.7454999999999998 Q 8.605900451660155 0.8009999999999998 8.634400451660156 0.8264999999999998 Q 8.662900451660155 0.8519999999999999 8.707900451660155 0.8519999999999999 Q 8.748400451660155 0.8519999999999999 8.774650451660154 0.8317499999999999 Q 8.800900451660155 0.8114999999999999 8.800900451660155 0.7754999999999999 Q 8.800900451660155 0.7289999999999999 8.757400451660155 0.7034999999999998 Q 8.713900451660155 0.6779999999999998 8.616400451660155 0.6464999999999999 Q 8.512900451660155 0.6119999999999999 8.449150451660154 0.5797499999999998 Q 8.385400451660155 0.5474999999999999 8.338150451660155 0.48524999999999985 Q 8.290900451660155 0.4229999999999998 8.290900451660155 0.3224999999999998 Q 8.290900451660155 0.2204999999999998 8.341900451660155 0.14774999999999983 Q 8.392900451660156 0.07499999999999984 8.482900451660155 0.03749999999999987 Q 8.572900451660155 -2.220446049250313e-16 8.686900451660154 -2.220446049250313e-16 Q 8.871400451660154 -2.220446049250313e-16 8.981650451660155 0.08624999999999983 Q 9.091900451660155 0.17249999999999988 9.099400451660156 0.3284999999999998 L 8.779900451660154 0.3284999999999998 Q 8.778400451660154 0.28049999999999986 8.750650451660155 0.25649999999999984 Q 8.722900451660156 0.23249999999999982 8.679400451660156 0.23249999999999982 Q 8.646400451660154 0.23249999999999982 8.625400451660155 0.2519999999999998 Q 8.604400451660155 0.27149999999999985 8.604400451660155 0.3074999999999998 Q 8.604400451660155 0.3374999999999998 8.627650451660156 0.35924999999999985 Q 8.650900451660155 0.3809999999999998 8.685400451660154 0.3967499999999998 Q 8.719900451660155 0.41249999999999987 8.787400451660154 0.4364999999999998 Q 8.887900451660155 0.47099999999999986 8.953150451660155 0.5047499999999998 Q 9.018400451660154 0.5384999999999999 9.065650451660154 0.5992499999999998 Q 9.112900451660154 0.6599999999999998 9.112900451660154 0.7529999999999999 Q 9.112900451660154 0.8474999999999998 9.065650451660154 0.9224999999999999 Q 9.018400451660154 0.9974999999999998 8.929150451660155 1.041 Q 8.839900451660155 1.0844999999999998 8.718400451660155 1.0844999999999998 Q 8.533900451660156 1.0844999999999998 8.415400451660155 0.9967499999999998" fill="#ffffff" fill-rule="nonzero"></path></g><g><path d=" M 0.43875000000000003 1.7360999999999998 Q 0.4665 1.7717249999999998 0.4665 1.8174749999999997 Q 0.4665 1.8834749999999998 0.420375 1.9221 Q 0.37425 1.9607249999999998 0.29175 1.9607249999999998 L 0.0465 1.9607249999999998 L 0.0465 1.4342249999999999 L 0.28350000000000003 1.4342249999999999 Q 0.36375 1.4342249999999999 0.409125 1.4709749999999997 Q 0.4545 1.5077249999999998 0.4545 1.570725 Q 0.4545 1.617225 0.43012500000000004 1.6479749999999997 Q 0.40575 1.6787249999999998 0.36525 1.6907249999999998 Q 0.41100000000000003 1.700475 0.43875000000000003 1.7360999999999998 M 0.17475000000000002 1.6472249999999997 L 0.25875 1.6472249999999997 Q 0.29025 1.6472249999999997 0.307125 1.6333499999999999 Q 0.324 1.6194749999999998 0.324 1.5924749999999999 Q 0.324 1.5654749999999997 0.307125 1.5512249999999999 Q 0.29025 1.5369749999999998 0.25875 1.5369749999999998 L 0.17475000000000002 1.5369749999999998 L 0.17475000000000002 1.6472249999999997 M 0.319125 1.8425999999999998 Q 0.33675 1.827975 0.33675 1.8002249999999997 Q 0.33675 1.7724749999999998 0.318375 1.7567249999999999 Q 0.3 1.7409749999999997 0.26775 1.7409749999999997 L 0.17475000000000002 1.7409749999999997 L 0.17475000000000002 1.857225 L 0.26925 1.857225 Q 0.3015 1.857225 0.319125 1.8425999999999998 M 0.6716224365234376 1.9314749999999998 Q 0.6097474365234375 1.8969749999999999 0.5733724365234375 1.8350999999999997 Q 0.5369974365234376 1.7732249999999998 0.5369974365234376 1.6959749999999998 Q 0.5369974365234376 1.6187249999999997 0.5733724365234375 1.5572249999999999 Q 0.6097474365234375 1.4957249999999997 0.6716224365234376 1.4612249999999998 Q 0.7334974365234375 1.4267249999999998 0.8077474365234375 1.4267249999999998 Q 0.8819974365234375 1.4267249999999998 0.9438724365234376 1.4612249999999998 Q 1.0057474365234376 1.4957249999999997 1.0413724365234374 1.5572249999999999 Q 1.0769974365234374 1.6187249999999997 1.0769974365234374 1.6959749999999998 Q 1.0769974365234374 1.7732249999999998 1.0409974365234376 1.8350999999999997 Q 1.0049974365234375 1.8969749999999999 0.9434974365234375 1.9314749999999998 Q 0.8819974365234375 1.9659749999999998 0.8077474365234375 1.9659749999999998 Q 0.7334974365234375 1.9659749999999998 0.6716224365234376 1.9314749999999998 M 0.9086224365234375 1.8069749999999998 Q 0.9464974365234375 1.7649749999999997 0.9464974365234375 1.6959749999999998 Q 0.9464974365234375 1.6262249999999998 0.9086224365234375 1.5845999999999998 Q 0.8707474365234376 1.5429749999999998 0.8077474365234375 1.5429749999999998 Q 0.7439974365234375 1.5429749999999998 0.7061224365234375 1.5842249999999998 Q 0.6682474365234375 1.6254749999999998 0.6682474365234375 1.6959749999999998 Q 0.6682474365234375 1.7657249999999998 0.7061224365234375 1.8073499999999998 Q 0.7439974365234375 1.8489749999999998 0.8077474365234375 1.8489749999999998 Q 0.8707474365234376 1.8489749999999998 0.9086224365234375 1.8069749999999998 M 1.2791304931640626 1.9314749999999998 Q 1.2172554931640625 1.8969749999999999 1.1808804931640626 1.8350999999999997 Q 1.1445054931640626 1.7732249999999998 1.1445054931640626 1.6959749999999998 Q 1.1445054931640626 1.6187249999999997 1.1808804931640626 1.5572249999999999 Q 1.2172554931640625 1.4957249999999997 1.2791304931640626 1.4612249999999998 Q 1.3410054931640625 1.4267249999999998 1.4152554931640626 1.4267249999999998 Q 1.4895054931640626 1.4267249999999998 1.5513804931640625 1.4612249999999998 Q 1.6132554931640626 1.4957249999999997 1.6488804931640626 1.5572249999999999 Q 1.6845054931640626 1.6187249999999997 1.6845054931640626 1.6959749999999998 Q 1.6845054931640626 1.7732249999999998 1.6485054931640626 1.8350999999999997 Q 1.6125054931640626 1.8969749999999999 1.5510054931640624 1.9314749999999998 Q 1.4895054931640626 1.9659749999999998 1.4152554931640626 1.9659749999999998 Q 1.3410054931640625 1.9659749999999998 1.2791304931640626 1.9314749999999998 M 1.5161304931640625 1.8069749999999998 Q 1.5540054931640626 1.7649749999999997 1.5540054931640626 1.6959749999999998 Q 1.5540054931640626 1.6262249999999998 1.5161304931640625 1.5845999999999998 Q 1.4782554931640626 1.5429749999999998 1.4152554931640626 1.5429749999999998 Q 1.3515054931640624 1.5429749999999998 1.3136304931640626 1.5842249999999998 Q 1.2757554931640624 1.6254749999999998 1.2757554931640624 1.6959749999999998 Q 1.2757554931640624 1.7657249999999998 1.3136304931640626 1.8073499999999998 Q 1.3515054931640624 1.8489749999999998 1.4152554931640626 1.8489749999999998 Q 1.4782554931640626 1.8489749999999998 1.5161304931640625 1.8069749999999998 M 2.0790135498046878 1.9607249999999998 L 1.9020135498046875 1.728225 L 1.9020135498046875 1.9607249999999998 L 1.7737635498046875 1.9607249999999998 L 1.7737635498046875 1.4342249999999999 L 1.9020135498046875 1.4342249999999999 L 1.9020135498046875 1.665225 L 2.0775135498046877 1.4342249999999999 L 2.2282635498046877 1.4342249999999999 L 2.0242635498046875 1.6922249999999999 L 2.2357635498046875 1.9607249999999998 L 2.0790135498046878 1.9607249999999998 M 2.6197796630859376 1.9607249999999998 L 2.4427796630859375 1.728225 L 2.4427796630859375 1.9607249999999998 L 2.3145296630859375 1.9607249999999998 L 2.3145296630859375 1.4342249999999999 L 2.4427796630859375 1.4342249999999999 L 2.4427796630859375 1.665225 L 2.6182796630859375 1.4342249999999999 L 2.7690296630859375 1.4342249999999999 L 2.5650296630859377 1.6922249999999999 L 2.7765296630859377 1.9607249999999998 L 2.6197796630859376 1.9607249999999998 M 2.9835457763671873 1.5369749999999998 L 2.9835457763671873 1.6434749999999998 L 3.155295776367187 1.6434749999999998 L 3.155295776367187 1.7424749999999998 L 2.9835457763671873 1.7424749999999998 L 2.9835457763671873 1.8579749999999997 L 3.177795776367187 1.8579749999999997 L 3.177795776367187 1.9607249999999998 L 2.8552957763671873 1.9607249999999998 L 2.8552957763671873 1.4342249999999999 L 3.177795776367187 1.4342249999999999 L 3.177795776367187 1.5369749999999998 L 2.9835457763671873 1.5369749999999998 M 3.407307495117187 1.5369749999999998 L 3.407307495117187 1.6434749999999998 L 3.579057495117187 1.6434749999999998 L 3.579057495117187 1.7424749999999998 L 3.407307495117187 1.7424749999999998 L 3.407307495117187 1.8579749999999997 L 3.601557495117187 1.8579749999999997 L 3.601557495117187 1.9607249999999998 L 3.279057495117187 1.9607249999999998 L 3.279057495117187 1.4342249999999999 L 3.601557495117187 1.4342249999999999 L 3.601557495117187 1.5369749999999998 L 3.407307495117187 1.5369749999999998 M 4.083069213867187 1.68735 Q 4.062069213867187 1.7252249999999998 4.018569213867187 1.7484749999999998 Q 3.975069213867187 1.7717249999999998 3.910569213867187 1.7717249999999998 L 3.831069213867187 1.7717249999999998 L 3.831069213867187 1.9607249999999998 L 3.702819213867187 1.9607249999999998 L 3.702819213867187 1.4342249999999999 L 3.910569213867187 1.4342249999999999 Q 3.973569213867187 1.4342249999999999 4.017069213867187 1.4559749999999998 Q 4.060569213867187 1.477725 4.082319213867187 1.5159749999999999 Q 4.104069213867187 1.5542249999999997 4.104069213867187 1.6037249999999998 Q 4.104069213867187 1.6494749999999998 4.083069213867187 1.68735 M 3.9555692138671867 1.652475 Q 3.973569213867187 1.6352249999999997 3.973569213867187 1.6037249999999998 Q 3.973569213867187 1.5722249999999998 3.9555692138671867 1.5549749999999998 Q 3.937569213867187 1.5377249999999998 3.900819213867187 1.5377249999999998 L 3.831069213867187 1.5377249999999998 L 3.831069213867187 1.669725 L 3.900819213867187 1.669725 Q 3.937569213867187 1.669725 3.9555692138671867 1.652475 M 4.317086791992187 1.4342249999999999 L 4.317086791992187 1.9607249999999998 L 4.188836791992187 1.9607249999999998 L 4.188836791992187 1.4342249999999999 L 4.317086791992187 1.4342249999999999 M 4.899073974609374 1.9607249999999998 L 4.770823974609374 1.9607249999999998 L 4.556323974609374 1.6359749999999997 L 4.556323974609374 1.9607249999999998 L 4.428073974609374 1.9607249999999998 L 4.428073974609374 1.4342249999999999 L 4.556323974609374 1.4342249999999999 L 4.770823974609374 1.7604749999999998 L 4.770823974609374 1.4342249999999999 L 4.899073974609374 1.4342249999999999 L 4.899073974609374 1.9607249999999998 M 5.359584594726561 1.6007249999999997 Q 5.345334594726562 1.5744749999999998 5.3187095947265615 1.5605999999999998 Q 5.292084594726561 1.546725 5.256084594726561 1.546725 Q 5.193834594726561 1.546725 5.1563345947265615 1.5876 Q 5.118834594726561 1.628475 5.118834594726561 1.6967249999999998 Q 5.118834594726561 1.769475 5.158209594726562 1.81035 Q 5.197584594726561 1.851225 5.266584594726561 1.851225 Q 5.313834594726561 1.851225 5.346459594726562 1.8272249999999999 Q 5.379084594726561 1.8032249999999999 5.394084594726562 1.758225 L 5.231334594726562 1.758225 L 5.231334594726562 1.663725 L 5.510334594726562 1.663725 L 5.510334594726562 1.7829749999999998 Q 5.496084594726561 1.8309749999999998 5.461959594726562 1.8722249999999998 Q 5.427834594726561 1.9134749999999998 5.375334594726561 1.938975 Q 5.322834594726562 1.9644749999999997 5.256834594726561 1.9644749999999997 Q 5.1788345947265615 1.9644749999999997 5.117709594726561 1.9303499999999998 Q 5.056584594726561 1.8962249999999998 5.022459594726561 1.8354749999999997 Q 4.988334594726561 1.7747249999999999 4.988334594726561 1.6967249999999998 Q 4.988334594726561 1.6187249999999997 5.022459594726561 1.5575999999999999 Q 5.056584594726561 1.4964749999999998 5.117334594726561 1.4623499999999998 Q 5.1780845947265615 1.4282249999999999 5.256084594726561 1.4282249999999999 Q 5.350584594726561 1.4282249999999999 5.415459594726562 1.4739749999999998 Q 5.480334594726561 1.5197249999999998 5.501334594726561 1.6007249999999997 L 5.359584594726561 1.6007249999999997 M 5.863583862304686 1.9472249999999998 Q 5.817833862304686 1.9284749999999997 5.7904588623046855 1.8917249999999999 Q 5.763083862304686 1.8549749999999998 5.761583862304686 1.8032249999999999 L 5.898083862304686 1.8032249999999999 Q 5.901083862304686 1.8324749999999999 5.918333862304686 1.8478499999999998 Q 5.935583862304686 1.863225 5.963333862304686 1.863225 Q 5.991833862304686 1.863225 6.008333862304686 1.8500999999999999 Q 6.0248338623046855 1.8369749999999998 6.0248338623046855 1.8137249999999998 Q 6.0248338623046855 1.7942249999999997 6.011708862304686 1.781475 Q 5.998583862304686 1.7687249999999999 5.979458862304686 1.7604749999999998 Q 5.960333862304686 1.752225 5.925083862304686 1.7417249999999997 Q 5.874083862304686 1.7259749999999998 5.841833862304686 1.7102249999999999 Q 5.809583862304686 1.6944749999999997 5.786333862304686 1.663725 Q 5.763083862304686 1.6329749999999998 5.763083862304686 1.5834749999999997 Q 5.763083862304686 1.5099749999999998 5.816333862304686 1.4683499999999998 Q 5.869583862304686 1.4267249999999998 5.955083862304686 1.4267249999999998 Q 6.042083862304686 1.4267249999999998 6.0953338623046855 1.4683499999999998 Q 6.148583862304686 1.5099749999999998 6.152333862304686 1.5842249999999998 L 6.013583862304686 1.5842249999999998 Q 6.012083862304686 1.558725 5.994833862304686 1.5440999999999998 Q 5.9775838623046855 1.5294749999999997 5.950583862304686 1.5294749999999997 Q 5.927333862304686 1.5294749999999997 5.913083862304686 1.5418499999999997 Q 5.898833862304686 1.5542249999999997 5.898833862304686 1.5774749999999997 Q 5.898833862304686 1.6029749999999998 5.922833862304686 1.617225 Q 5.946833862304686 1.6314749999999998 5.997833862304686 1.6479749999999997 Q 6.048833862304686 1.665225 6.080708862304686 1.6809749999999999 Q 6.112583862304686 1.6967249999999998 6.135833862304686 1.7267249999999998 Q 6.159083862304686 1.7567249999999999 6.159083862304686 1.8039749999999999 Q 6.159083862304686 1.8489749999999998 6.136208862304686 1.8857249999999999 Q 6.113333862304686 1.922475 6.0698338623046855 1.9442249999999999 Q 6.026333862304686 1.9659749999999998 5.967083862304686 1.9659749999999998 Q 5.909333862304686 1.9659749999999998 5.863583862304686 1.9472249999999998 M 6.384076538085936 1.5369749999999998 L 6.384076538085936 1.6434749999999998 L 6.5558265380859355 1.6434749999999998 L 6.5558265380859355 1.7424749999999998 L 6.384076538085936 1.7424749999999998 L 6.384076538085936 1.8579749999999997 L 6.5783265380859355 1.8579749999999997 L 6.5783265380859355 1.9607249999999998 L 6.255826538085936 1.9607249999999998 L 6.255826538085936 1.4342249999999999 L 6.5783265380859355 1.4342249999999999 L 6.5783265380859355 1.5369749999999998 L 6.384076538085936 1.5369749999999998 M 6.948088256835936 1.9607249999999998 L 6.838588256835935 1.7619749999999998 L 6.807838256835936 1.7619749999999998 L 6.807838256835936 1.9607249999999998 L 6.6795882568359355 1.9607249999999998 L 6.6795882568359355 1.4342249999999999 L 6.894838256835936 1.4342249999999999 Q 6.957088256835935 1.4342249999999999 7.000963256835935 1.4559749999999998 Q 7.044838256835935 1.477725 7.066588256835935 1.5155999999999998 Q 7.088338256835936 1.5534749999999997 7.088338256835936 1.5999749999999997 Q 7.088338256835936 1.652475 7.058713256835936 1.6937249999999997 Q 7.029088256835935 1.734975 6.971338256835936 1.752225 L 7.092838256835935 1.9607249999999998 L 6.948088256835936 1.9607249999999998 M 6.807838256835936 1.6712249999999997 L 6.887338256835935 1.6712249999999997 Q 6.922588256835936 1.6712249999999997 6.940213256835936 1.6539749999999998 Q 6.957838256835935 1.6367249999999998 6.957838256835935 1.605225 Q 6.957838256835935 1.5752249999999999 6.940213256835936 1.5579749999999999 Q 6.922588256835936 1.540725 6.887338256835935 1.540725 L 6.807838256835936 1.540725 L 6.807838256835936 1.6712249999999997 M 7.68082141113281 1.4342249999999999 L 7.49407141113281 1.9607249999999998 L 7.3335714111328105 1.9607249999999998 L 7.1468214111328106 1.4342249999999999 L 7.28332141113281 1.4342249999999999 L 7.41382141113281 1.8317249999999998 L 7.5450714111328105 1.4342249999999999 L 7.68082141113281 1.4342249999999999 M 7.8803067626953105 1.4342249999999999 L 7.8803067626953105 1.9607249999999998 L 7.75205676269531 1.9607249999999998 L 7.75205676269531 1.4342249999999999 L 7.8803067626953105 1.4342249999999999 M 8.003293945312498 1.5575999999999999 Q 8.037043945312497 1.4964749999999998 8.097418945312498 1.4623499999999998 Q 8.157793945312497 1.4282249999999999 8.234293945312498 1.4282249999999999 Q 8.328043945312498 1.4282249999999999 8.394793945312497 1.477725 Q 8.461543945312497 1.5272249999999998 8.484043945312497 1.6127249999999997 L 8.343043945312498 1.6127249999999997 Q 8.327293945312498 1.5797249999999998 8.298418945312497 1.5624749999999998 Q 8.269543945312497 1.5452249999999998 8.232793945312498 1.5452249999999998 Q 8.173543945312497 1.5452249999999998 8.136793945312498 1.5864749999999999 Q 8.100043945312498 1.6277249999999999 8.100043945312498 1.6967249999999998 Q 8.100043945312498 1.7657249999999998 8.136793945312498 1.8069749999999998 Q 8.173543945312497 1.8482249999999998 8.232793945312498 1.8482249999999998 Q 8.269543945312497 1.8482249999999998 8.298418945312497 1.8309749999999998 Q 8.327293945312498 1.8137249999999998 8.343043945312498 1.780725 L 8.484043945312497 1.780725 Q 8.461543945312497 1.8662249999999998 8.394793945312497 1.9153499999999999 Q 8.328043945312498 1.9644749999999997 8.234293945312498 1.9644749999999997 Q 8.157793945312497 1.9644749999999997 8.097418945312498 1.9303499999999998 Q 8.037043945312497 1.8962249999999998 8.003293945312498 1.8354749999999997 Q 7.969543945312497 1.7747249999999999 7.969543945312497 1.6967249999999998 Q 7.969543945312497 1.6187249999999997 8.003293945312498 1.5575999999999999 M 8.709061889648435 1.5369749999999998 L 8.709061889648435 1.6434749999999998 L 8.880811889648436 1.6434749999999998 L 8.880811889648436 1.7424749999999998 L 8.709061889648435 1.7424749999999998 L 8.709061889648435 1.8579749999999997 L 8.903311889648435 1.8579749999999997 L 8.903311889648435 1.9607249999999998 L 8.580811889648436 1.9607249999999998 L 8.580811889648436 1.4342249999999999 L 8.903311889648435 1.4342249999999999 L 8.903311889648435 1.5369749999999998 L 8.709061889648435 1.5369749999999998 M 9.091573608398436 1.9472249999999998 Q 9.045823608398436 1.9284749999999997 9.018448608398437 1.8917249999999999 Q 8.991073608398436 1.8549749999999998 8.989573608398436 1.8032249999999999 L 9.126073608398436 1.8032249999999999 Q 9.129073608398436 1.8324749999999999 9.146323608398436 1.8478499999999998 Q 9.163573608398437 1.863225 9.191323608398436 1.863225 Q 9.219823608398436 1.863225 9.236323608398436 1.8500999999999999 Q 9.252823608398437 1.8369749999999998 9.252823608398437 1.8137249999999998 Q 9.252823608398437 1.7942249999999997 9.239698608398436 1.781475 Q 9.226573608398436 1.7687249999999999 9.207448608398437 1.7604749999999998 Q 9.188323608398436 1.752225 9.153073608398437 1.7417249999999997 Q 9.102073608398436 1.7259749999999998 9.069823608398437 1.7102249999999999 Q 9.037573608398436 1.6944749999999997 9.014323608398437 1.663725 Q 8.991073608398436 1.6329749999999998 8.991073608398436 1.5834749999999997 Q 8.991073608398436 1.5099749999999998 9.044323608398436 1.4683499999999998 Q 9.097573608398436 1.4267249999999998 9.183073608398436 1.4267249999999998 Q 9.270073608398436 1.4267249999999998 9.323323608398436 1.4683499999999998 Q 9.376573608398436 1.5099749999999998 9.380323608398436 1.5842249999999998 L 9.241573608398436 1.5842249999999998 Q 9.240073608398436 1.558725 9.222823608398436 1.5440999999999998 Q 9.205573608398437 1.5294749999999997 9.178573608398436 1.5294749999999997 Q 9.155323608398437 1.5294749999999997 9.141073608398436 1.5418499999999997 Q 9.126823608398436 1.5542249999999997 9.126823608398436 1.5774749999999997 Q 9.126823608398436 1.6029749999999998 9.150823608398436 1.617225 Q 9.174823608398436 1.6314749999999998 9.225823608398436 1.6479749999999997 Q 9.276823608398436 1.665225 9.308698608398437 1.6809749999999999 Q 9.340573608398437 1.6967249999999998 9.363823608398436 1.7267249999999998 Q 9.387073608398437 1.7567249999999999 9.387073608398437 1.8039749999999999 Q 9.387073608398437 1.8489749999999998 9.364198608398436 1.8857249999999999 Q 9.341323608398437 1.922475 9.297823608398437 1.9442249999999999 Q 9.254323608398437 1.9659749999999998 9.195073608398436 1.9659749999999998 Q 9.137323608398436 1.9659749999999998 9.091573608398436 1.9472249999999998" fill="#eda0a0" fill-rule="nonzero"></path></g></g><defs><clipPath id="SvgjsClipPath1002"><path d=" M 0.8508784522443058 -6.850287549246005 h 7.717559379691075 v 6.600287549246005 h -7.717559379691075 Z"></path></clipPath><clipPath id="SvgjsClipPath1000c0eaebe5-a2f0-41ce-82f8-d2954e67bf58"><path d=" M 0.8508784522443058 -6.850287549246005 L 8.56843783193538 -6.850287549246005 L 8.56843783193538 -0.25 L 0.8508784522443058 -0.25 Z"></path></clipPath></defs></svg>